<mxfile host="app.diagrams.net" modified="2023-05-27T04:43:56.775Z" agent="Mozilla/5.0 (X11; Linux x86_64) AppleWebKit/537.36 (KHTML, like Gecko) Chrome/115.0.0.0 Safari/537.36" etag="9zVYYoEB6i4HkPVGlOHV" version="21.3.4" type="device" pages="3">
  <diagram id="H9cXedggXDRIJOp_ijHC" name="gtimer_state_machine">
    <mxGraphModel dx="1048" dy="-247" grid="1" gridSize="10" guides="1" tooltips="1" connect="1" arrows="1" fold="1" page="1" pageScale="1" pageWidth="1100" pageHeight="850" math="0" shadow="1">
      <root>
        <mxCell id="0" />
        <mxCell id="1" parent="0" />
        <mxCell id="vmlORSv95FjigiQp0P0b-10" value="" style="edgeStyle=orthogonalEdgeStyle;rounded=0;orthogonalLoop=1;jettySize=auto;html=1;fontFamily=Lucida Console;labelBackgroundColor=#D4E1F5;fontStyle=1;exitX=1;exitY=0.5;exitDx=0;exitDy=0;entryX=0;entryY=0.5;entryDx=0;entryDy=0;fontSize=12;" parent="1" source="MlheWF1Qkhs5KqdshO8N-5" target="MlheWF1Qkhs5KqdshO8N-7" edge="1">
          <mxGeometry relative="1" as="geometry">
            <mxPoint x="317.90999999999997" y="1696" as="targetPoint" />
          </mxGeometry>
        </mxCell>
        <mxCell id="MlheWF1Qkhs5KqdshO8N-5" value="Wait for Rising Edge Event" style="ellipse;whiteSpace=wrap;html=1;fontFamily=Lucida Console;fontSize=12;fontStyle=1;fillColor=#7EA6E0;" parent="1" vertex="1">
          <mxGeometry x="640" y="1221" width="130" height="80" as="geometry" />
        </mxCell>
        <mxCell id="T0Pd4vbM1uNse8A5Jt4m-2" value="" style="edgeStyle=orthogonalEdgeStyle;rounded=0;orthogonalLoop=1;jettySize=auto;html=1;exitX=0.5;exitY=1;exitDx=0;exitDy=0;fontFamily=Lucida Console;fontStyle=1;labelBackgroundColor=#D4E1F5;fontSize=12;" parent="1" source="MlheWF1Qkhs5KqdshO8N-7" edge="1">
          <mxGeometry x="0.2697" relative="1" as="geometry">
            <mxPoint x="700" y="1303.5" as="targetPoint" />
            <Array as="points">
              <mxPoint x="900" y="1333.5" />
              <mxPoint x="701" y="1333.5" />
              <mxPoint x="701" y="1303.5" />
            </Array>
            <mxPoint as="offset" />
          </mxGeometry>
        </mxCell>
        <mxCell id="MlheWF1Qkhs5KqdshO8N-7" value="Write Wakeup Time to Shmem" style="ellipse;whiteSpace=wrap;html=1;fontFamily=Lucida Console;fontSize=12;fontStyle=1;fillColor=#7EA6E0;" parent="1" vertex="1">
          <mxGeometry x="840" y="1221" width="120" height="80" as="geometry" />
        </mxCell>
        <mxCell id="vmlORSv95FjigiQp0P0b-3" value="" style="edgeStyle=orthogonalEdgeStyle;rounded=0;orthogonalLoop=1;jettySize=auto;html=1;entryX=0;entryY=0.5;entryDx=0;entryDy=0;fontFamily=Lucida Console;labelBackgroundColor=#D4E1F5;fontStyle=1;fontSize=12;exitX=1;exitY=0.5;exitDx=0;exitDy=0;" parent="1" source="vmlORSv95FjigiQp0P0b-1" target="vmlORSv95FjigiQp0P0b-2" edge="1">
          <mxGeometry x="-0.0606" relative="1" as="geometry">
            <Array as="points">
              <mxPoint x="380" y="1261.5" />
              <mxPoint x="380" y="1261.5" />
            </Array>
            <mxPoint as="offset" />
          </mxGeometry>
        </mxCell>
        <mxCell id="vmlORSv95FjigiQp0P0b-1" value="Init Shared Memory" style="ellipse;whiteSpace=wrap;html=1;fontFamily=Lucida Console;fontSize=12;fontStyle=1;fillColor=#7EA6E0;" parent="1" vertex="1">
          <mxGeometry x="220" y="1216" width="130" height="90" as="geometry" />
        </mxCell>
        <mxCell id="vmlORSv95FjigiQp0P0b-4" value="" style="edgeStyle=orthogonalEdgeStyle;rounded=0;orthogonalLoop=1;jettySize=auto;html=1;entryX=0;entryY=0.5;entryDx=0;entryDy=0;fontFamily=Lucida Console;labelBackgroundColor=#D4E1F5;fontStyle=1;fontSize=12;" parent="1" source="vmlORSv95FjigiQp0P0b-2" target="MlheWF1Qkhs5KqdshO8N-5" edge="1">
          <mxGeometry relative="1" as="geometry">
            <mxPoint as="offset" />
          </mxGeometry>
        </mxCell>
        <mxCell id="vmlORSv95FjigiQp0P0b-2" value="Init Input GPIO" style="ellipse;whiteSpace=wrap;html=1;fontFamily=Lucida Console;fontSize=12;fontStyle=1;fillColor=#7EA6E0;" parent="1" vertex="1">
          <mxGeometry x="430" y="1216" width="130" height="90" as="geometry" />
        </mxCell>
        <mxCell id="vmlORSv95FjigiQp0P0b-18" style="edgeStyle=orthogonalEdgeStyle;rounded=0;orthogonalLoop=1;jettySize=auto;html=1;entryX=0;entryY=0.5;entryDx=0;entryDy=0;fontFamily=Lucida Console;fontSize=12;fontStyle=0" parent="1" source="vmlORSv95FjigiQp0P0b-17" target="vmlORSv95FjigiQp0P0b-1" edge="1">
          <mxGeometry relative="1" as="geometry" />
        </mxCell>
        <mxCell id="vmlORSv95FjigiQp0P0b-17" value="" style="ellipse;whiteSpace=wrap;html=1;aspect=fixed;fillColor=#7EA6E0;fontFamily=Lucida Console;fontSize=12;fontStyle=0" parent="1" vertex="1">
          <mxGeometry x="100" y="1243.5" width="35" height="35" as="geometry" />
        </mxCell>
      </root>
    </mxGraphModel>
  </diagram>
  <diagram name="gsync_state_machine" id="cNr1XQqD759sCa3C88nT">
    <mxGraphModel dx="1048" dy="-247" grid="1" gridSize="10" guides="1" tooltips="1" connect="1" arrows="1" fold="1" page="1" pageScale="1" pageWidth="1100" pageHeight="850" background="none" math="0" shadow="1">
      <root>
        <mxCell id="0" />
        <mxCell id="1" parent="0" />
        <mxCell id="JC2metaAEz-XwuCULyKm-3" style="edgeStyle=orthogonalEdgeStyle;rounded=0;orthogonalLoop=1;jettySize=auto;html=1;entryX=0.5;entryY=0;entryDx=0;entryDy=0;exitX=0.5;exitY=1;exitDx=0;exitDy=0;fontFamily=Lucida Console;" parent="1" source="Tmm5sT9xq-HKcVvQ4M4n-6" target="pdDv1uYVtVUU_qt3WY7q-1" edge="1">
          <mxGeometry relative="1" as="geometry" />
        </mxCell>
        <mxCell id="Tmm5sT9xq-HKcVvQ4M4n-6" value="Get Current CLOCK_MONOTONIC Time" style="ellipse;whiteSpace=wrap;html=1;fontFamily=Lucida Console;fontSize=12;fontStyle=1;fillColor=#7EA6E0;" parent="1" vertex="1">
          <mxGeometry x="590" y="1100" width="150" height="80" as="geometry" />
        </mxCell>
        <mxCell id="Tmm5sT9xq-HKcVvQ4M4n-7" value="" style="edgeStyle=orthogonalEdgeStyle;rounded=0;orthogonalLoop=1;jettySize=auto;html=1;entryX=0;entryY=0.5;entryDx=0;entryDy=0;fontFamily=Lucida Console;labelBackgroundColor=#D4E1F5;fontStyle=1;exitX=1;exitY=0.5;exitDx=0;exitDy=0;" parent="1" source="Tmm5sT9xq-HKcVvQ4M4n-9" target="Tmm5sT9xq-HKcVvQ4M4n-12" edge="1">
          <mxGeometry relative="1" as="geometry" />
        </mxCell>
        <mxCell id="Tmm5sT9xq-HKcVvQ4M4n-9" value="Attach to Shared Memory" style="ellipse;whiteSpace=wrap;html=1;fontFamily=Lucida Console;fontSize=12;fontStyle=1;fillColor=#7EA6E0;" parent="1" vertex="1">
          <mxGeometry x="365" y="950" width="130" height="90" as="geometry" />
        </mxCell>
        <mxCell id="Tmm5sT9xq-HKcVvQ4M4n-10" value="" style="edgeStyle=orthogonalEdgeStyle;rounded=0;orthogonalLoop=1;jettySize=auto;html=1;fontFamily=Lucida Console;labelBackgroundColor=#D4E1F5;fontStyle=1;entryX=0.5;entryY=0;entryDx=0;entryDy=0;" parent="1" source="Tmm5sT9xq-HKcVvQ4M4n-12" target="Tmm5sT9xq-HKcVvQ4M4n-6" edge="1">
          <mxGeometry relative="1" as="geometry">
            <mxPoint as="offset" />
            <mxPoint x="805" y="995" as="targetPoint" />
          </mxGeometry>
        </mxCell>
        <mxCell id="Tmm5sT9xq-HKcVvQ4M4n-12" value="Init Output GPIO" style="ellipse;whiteSpace=wrap;html=1;fontFamily=Lucida Console;fontSize=12;fontStyle=1;fillColor=#7EA6E0;" parent="1" vertex="1">
          <mxGeometry x="600" y="950" width="130" height="90" as="geometry" />
        </mxCell>
        <mxCell id="Tmm5sT9xq-HKcVvQ4M4n-15" style="edgeStyle=orthogonalEdgeStyle;rounded=0;orthogonalLoop=1;jettySize=auto;html=1;entryX=0;entryY=0.5;entryDx=0;entryDy=0;fontFamily=Lucida Console;" parent="1" source="Tmm5sT9xq-HKcVvQ4M4n-16" target="Tmm5sT9xq-HKcVvQ4M4n-9" edge="1">
          <mxGeometry relative="1" as="geometry" />
        </mxCell>
        <mxCell id="Tmm5sT9xq-HKcVvQ4M4n-16" value="" style="ellipse;whiteSpace=wrap;html=1;aspect=fixed;fillColor=#7EA6E0;fontFamily=Lucida Console;" parent="1" vertex="1">
          <mxGeometry x="220" y="977.5" width="35" height="35" as="geometry" />
        </mxCell>
        <mxCell id="DomnHgO1XOQsfdxrIvcA-4" value="" style="edgeStyle=orthogonalEdgeStyle;rounded=0;orthogonalLoop=1;jettySize=auto;html=1;entryX=0.5;entryY=0;entryDx=0;entryDy=0;fontFamily=Lucida Console;labelBackgroundColor=#D4E1F5;fontStyle=1;exitX=0.5;exitY=1;exitDx=0;exitDy=0;" parent="1" source="DomnHgO1XOQsfdxrIvcA-1" target="DomnHgO1XOQsfdxrIvcA-2" edge="1">
          <mxGeometry relative="1" as="geometry" />
        </mxCell>
        <mxCell id="DomnHgO1XOQsfdxrIvcA-1" value="Compute Next Wakeup Time" style="ellipse;whiteSpace=wrap;html=1;fontFamily=Lucida Console;fontSize=12;fontStyle=1;fillColor=#7EA6E0;" parent="1" vertex="1">
          <mxGeometry x="605" y="1380" width="120" height="80" as="geometry" />
        </mxCell>
        <mxCell id="nB0VQEPAxrZI-wofyT0b-1" style="edgeStyle=orthogonalEdgeStyle;rounded=0;orthogonalLoop=1;jettySize=auto;html=1;entryX=0;entryY=0.5;entryDx=0;entryDy=0;fontFamily=Lucida Console;" parent="1" source="DomnHgO1XOQsfdxrIvcA-2" target="Tmm5sT9xq-HKcVvQ4M4n-6" edge="1">
          <mxGeometry relative="1" as="geometry">
            <Array as="points">
              <mxPoint x="545" y="1560" />
              <mxPoint x="545" y="1140" />
            </Array>
          </mxGeometry>
        </mxCell>
        <mxCell id="DomnHgO1XOQsfdxrIvcA-2" value="Sleep Until Next Wakeup" style="ellipse;whiteSpace=wrap;html=1;fontFamily=Lucida Console;fontSize=12;fontStyle=1;fillColor=#7EA6E0;" parent="1" vertex="1">
          <mxGeometry x="605" y="1520" width="120" height="80" as="geometry" />
        </mxCell>
        <mxCell id="JC2metaAEz-XwuCULyKm-4" style="edgeStyle=orthogonalEdgeStyle;rounded=0;orthogonalLoop=1;jettySize=auto;html=1;entryX=0.5;entryY=0;entryDx=0;entryDy=0;exitX=0.5;exitY=1;exitDx=0;exitDy=0;fontFamily=Lucida Console;" parent="1" source="pdDv1uYVtVUU_qt3WY7q-1" target="DomnHgO1XOQsfdxrIvcA-1" edge="1">
          <mxGeometry relative="1" as="geometry" />
        </mxCell>
        <mxCell id="pdDv1uYVtVUU_qt3WY7q-1" value="Send Wakeup Signal to Peer" style="ellipse;whiteSpace=wrap;html=1;fontFamily=Lucida Console;fontSize=12;fontStyle=1;fillColor=#7EA6E0;" parent="1" vertex="1">
          <mxGeometry x="605" y="1240" width="120" height="80" as="geometry" />
        </mxCell>
      </root>
    </mxGraphModel>
  </diagram>
  <diagram id="DiTGNNG7Svd6GytkEfqW" name="high_level_overview">
    <mxGraphModel dx="1233" dy="-141" grid="1" gridSize="10" guides="1" tooltips="1" connect="1" arrows="1" fold="1" page="1" pageScale="1" pageWidth="1100" pageHeight="850" math="0" shadow="0">
      <root>
        <mxCell id="0" />
        <mxCell id="1" parent="0" />
        <mxCell id="vD8CwAbJMXuYhD0ysed4-1" value="&lt;font style=&quot;font-size: 19px;&quot;&gt;BeagleBone Black 1&lt;/font&gt;" style="rounded=0;whiteSpace=wrap;html=1;verticalAlign=top;align=left;fillColor=#D4E1F5;fontFamily=Lucida Console;fontStyle=1;fontSize=15;" parent="1" vertex="1">
          <mxGeometry x="185" y="890" width="730" height="360" as="geometry" />
        </mxCell>
        <mxCell id="39j1JXNW90xBwzIc9Pb1-7" style="edgeStyle=orthogonalEdgeStyle;rounded=0;orthogonalLoop=1;jettySize=auto;html=1;exitX=0.5;exitY=1;exitDx=0;exitDy=0;entryX=0.25;entryY=0;entryDx=0;entryDy=0;" parent="1" source="39j1JXNW90xBwzIc9Pb1-1" target="39j1JXNW90xBwzIc9Pb1-3" edge="1">
          <mxGeometry relative="1" as="geometry" />
        </mxCell>
        <mxCell id="39j1JXNW90xBwzIc9Pb1-1" value="&lt;font style=&quot;font-size: 21px;&quot;&gt;gtimer&lt;/font&gt;" style="rounded=0;whiteSpace=wrap;html=1;fontFamily=Lucida Console;fontSize=12;fontStyle=1;fillColor=#A9C4EB;verticalAlign=middle;align=center;" parent="1" vertex="1">
          <mxGeometry x="258" y="960" width="270" height="100" as="geometry" />
        </mxCell>
        <mxCell id="39j1JXNW90xBwzIc9Pb1-2" value="&lt;font style=&quot;font-size: 21px;&quot;&gt;gsync&lt;/font&gt;" style="rounded=0;whiteSpace=wrap;html=1;fontFamily=Lucida Console;fontSize=12;fontStyle=1;fillColor=#A9C4EB;verticalAlign=middle;align=center;" parent="1" vertex="1">
          <mxGeometry x="573" y="960" width="270" height="100" as="geometry" />
        </mxCell>
        <mxCell id="39j1JXNW90xBwzIc9Pb1-6" style="edgeStyle=orthogonalEdgeStyle;rounded=0;orthogonalLoop=1;jettySize=auto;html=1;exitX=0.75;exitY=0;exitDx=0;exitDy=0;entryX=0.5;entryY=1;entryDx=0;entryDy=0;" parent="1" source="39j1JXNW90xBwzIc9Pb1-3" target="39j1JXNW90xBwzIc9Pb1-2" edge="1">
          <mxGeometry relative="1" as="geometry" />
        </mxCell>
        <mxCell id="39j1JXNW90xBwzIc9Pb1-3" value="&lt;font style=&quot;font-size: 21px;&quot;&gt;Shared Memory&lt;/font&gt;" style="rounded=0;whiteSpace=wrap;html=1;fontFamily=Lucida Console;fontSize=12;fontStyle=1;fillColor=#A9C4EB;verticalAlign=middle;align=center;" parent="1" vertex="1">
          <mxGeometry x="235" y="1120" width="630" height="100" as="geometry" />
        </mxCell>
        <mxCell id="39j1JXNW90xBwzIc9Pb1-8" value="&lt;font style=&quot;font-size: 19px;&quot;&gt;BeagleBone Black 2&lt;/font&gt;" style="rounded=0;whiteSpace=wrap;html=1;verticalAlign=top;align=left;fillColor=#D4E1F5;fontFamily=Lucida Console;fontStyle=1;fontSize=15;" parent="1" vertex="1">
          <mxGeometry x="185" y="1280" width="730" height="360" as="geometry" />
        </mxCell>
        <mxCell id="39j1JXNW90xBwzIc9Pb1-9" style="edgeStyle=orthogonalEdgeStyle;rounded=0;orthogonalLoop=1;jettySize=auto;html=1;exitX=0.5;exitY=1;exitDx=0;exitDy=0;entryX=0.25;entryY=0;entryDx=0;entryDy=0;" parent="1" source="39j1JXNW90xBwzIc9Pb1-10" target="39j1JXNW90xBwzIc9Pb1-13" edge="1">
          <mxGeometry relative="1" as="geometry" />
        </mxCell>
        <mxCell id="39j1JXNW90xBwzIc9Pb1-10" value="&lt;font style=&quot;font-size: 21px;&quot;&gt;gtimer&lt;/font&gt;" style="rounded=0;whiteSpace=wrap;html=1;fontFamily=Lucida Console;fontSize=12;fontStyle=1;fillColor=#A9C4EB;verticalAlign=middle;align=center;" parent="1" vertex="1">
          <mxGeometry x="258" y="1350" width="270" height="100" as="geometry" />
        </mxCell>
        <mxCell id="39j1JXNW90xBwzIc9Pb1-11" value="&lt;font style=&quot;font-size: 21px;&quot;&gt;gsync&lt;/font&gt;" style="rounded=0;whiteSpace=wrap;html=1;fontFamily=Lucida Console;fontSize=12;fontStyle=1;fillColor=#A9C4EB;verticalAlign=middle;align=center;" parent="1" vertex="1">
          <mxGeometry x="573" y="1350" width="270" height="100" as="geometry" />
        </mxCell>
        <mxCell id="39j1JXNW90xBwzIc9Pb1-12" style="edgeStyle=orthogonalEdgeStyle;rounded=0;orthogonalLoop=1;jettySize=auto;html=1;exitX=0.75;exitY=0;exitDx=0;exitDy=0;entryX=0.5;entryY=1;entryDx=0;entryDy=0;" parent="1" source="39j1JXNW90xBwzIc9Pb1-13" target="39j1JXNW90xBwzIc9Pb1-11" edge="1">
          <mxGeometry relative="1" as="geometry" />
        </mxCell>
        <mxCell id="39j1JXNW90xBwzIc9Pb1-13" value="&lt;font style=&quot;font-size: 21px;&quot;&gt;Shared Memory&lt;/font&gt;" style="rounded=0;whiteSpace=wrap;html=1;fontFamily=Lucida Console;fontSize=12;fontStyle=1;fillColor=#A9C4EB;verticalAlign=middle;align=center;" parent="1" vertex="1">
          <mxGeometry x="235" y="1510" width="630" height="100" as="geometry" />
        </mxCell>
        <mxCell id="9SjSr4ypHuw_rgeXVL2P-4" value="BBB_2 GPIO Signal" style="html=1;shadow=0;dashed=0;align=center;verticalAlign=middle;shape=mxgraph.arrows2.arrow;dy=0.6;dx=40;notch=0;fillColor=#FFD966;fontFamily=Lucida Console;fontStyle=1" parent="1" vertex="1">
          <mxGeometry x="843" y="1365" width="155" height="70" as="geometry" />
        </mxCell>
        <mxCell id="HPlUoSxQ0THgMtOYUcfv-1" value="BBB_2 GPIO Signal" style="html=1;shadow=0;dashed=0;align=center;verticalAlign=middle;shape=mxgraph.arrows2.arrow;dy=0.6;dx=40;notch=0;fillColor=#FFD966;fontFamily=Lucida Console;fontStyle=1" parent="1" vertex="1">
          <mxGeometry x="103" y="970" width="155" height="70" as="geometry" />
        </mxCell>
        <mxCell id="HPlUoSxQ0THgMtOYUcfv-2" value="BBB_1 GPIO Signal" style="html=1;shadow=0;dashed=0;align=center;verticalAlign=middle;shape=mxgraph.arrows2.arrow;dy=0.6;dx=40;notch=0;fillColor=#67AB9F;fontFamily=Lucida Console;fontStyle=1" parent="1" vertex="1">
          <mxGeometry x="843" y="975" width="155" height="70" as="geometry" />
        </mxCell>
        <mxCell id="HPlUoSxQ0THgMtOYUcfv-3" value="BBB_1 GPIO Signal" style="html=1;shadow=0;dashed=0;align=center;verticalAlign=middle;shape=mxgraph.arrows2.arrow;dy=0.6;dx=40;notch=0;fillColor=#67AB9F;fontFamily=Lucida Console;fontStyle=1" parent="1" vertex="1">
          <mxGeometry x="103" y="1365" width="155" height="70" as="geometry" />
        </mxCell>
      </root>
    </mxGraphModel>
  </diagram>
</mxfile>
